<?xml version="1.0" encoding="iso-8859-1"?>
<!-- Uploaded to: SVG Repo, www.svgrepo.com, Generator: SVG Repo Mixer Tools -->
<svg height="800px" width="800px" version="1.1" id="Layer_1" xmlns="http://www.w3.org/2000/svg" xmlns:xlink="http://www.w3.org/1999/xlink" 
	 viewBox="0 0 512 512" xml:space="preserve">
<g transform="translate(1)">
	<g>
		<path style="fill:#556080;" d="M263.533,311.467c-5.12,0-8.533-3.413-8.533-8.533V140.8c0-5.12,3.413-8.533,8.533-8.533
			c5.12,0,8.533,3.413,8.533,8.533v162.133C272.067,308.053,268.653,311.467,263.533,311.467z"/>
		<path style="fill:#556080;" d="M425.667,422.4c-1.707,0-3.413-0.853-5.12-1.707l-157.013-107.52l-148.48,107.52
			c-3.413,2.56-9.387,1.707-11.947-1.707c-2.56-3.413-1.707-9.387,1.707-11.947l158.72-114.347L430.787,407.04
			c4.267,2.56,5.12,7.68,2.56,11.947C430.787,420.693,428.227,422.4,425.667,422.4z"/>
	</g>
	<g>
		<path style="fill:#DD691D;" d="M255,81.067c-2.56,0-4.267-0.853-5.973-2.56l-25.6-25.6c-3.413-3.413-3.413-8.533,0-11.947
			s8.533-3.413,11.947,0l25.6,25.6c3.413,3.413,3.413,8.533,0,11.947C259.267,80.213,257.56,81.067,255,81.067z"/>
		<path style="fill:#DD691D;" d="M255,81.067c-2.56,0-4.267-0.853-5.973-2.56c-3.413-3.413-3.413-8.533,0-11.947l25.6-25.6
			c3.413-3.413,8.533-3.413,11.947,0c3.413,3.413,3.413,8.533,0,11.947l-25.6,25.6C259.267,80.213,257.56,81.067,255,81.067z"/>
		<path style="fill:#DD691D;" d="M255,106.667c-5.12,0-8.533-3.413-8.533-8.533v-25.6c0-5.12,3.413-8.533,8.533-8.533
			s8.533,3.413,8.533,8.533v25.6C263.533,103.253,260.12,106.667,255,106.667z"/>
	</g>
	<g>
		<path style="fill:#25B99A;" d="M502.467,473.6c-2.56,0-4.267-0.853-5.973-2.56l-51.2-51.2c-3.413-3.413-3.413-8.533,0-11.947
			c3.413-3.413,8.533-3.413,11.947,0l51.2,51.2c3.413,3.413,3.413,8.533,0,11.947C506.733,472.747,505.027,473.6,502.467,473.6z"/>
		<path style="fill:#25B99A;" d="M451.267,473.6c-2.56,0-4.267-0.853-5.973-2.56c-3.413-3.413-3.413-8.533,0-11.947l51.2-51.2
			c3.413-3.413,8.533-3.413,11.947,0c3.413,3.413,3.413,8.533,0,11.947l-51.2,51.2C455.533,472.747,453.827,473.6,451.267,473.6z"/>
	</g>
	<g>
		<path style="fill:#0F81E0;" d="M58.733,422.4h-51.2c-5.12,0-8.533-3.413-8.533-8.533s3.413-8.533,8.533-8.533h51.2
			c5.12,0,8.533,3.413,8.533,8.533S63.853,422.4,58.733,422.4z"/>
		<path style="fill:#0F81E0;" d="M7.533,473.6c-2.56,0-4.267-0.853-5.973-2.56c-3.413-3.413-3.413-8.533,0-11.947l51.2-51.2
			c3.413-3.413,8.533-3.413,11.947,0c3.413,3.413,3.413,8.533,0,11.947l-51.2,51.2C11.8,472.747,10.093,473.6,7.533,473.6z"/>
		<path style="fill:#0F81E0;" d="M58.733,473.6h-51.2c-5.12,0-8.533-3.413-8.533-8.533c0-5.12,3.413-8.533,8.533-8.533h51.2
			c5.12,0,8.533,3.413,8.533,8.533C67.267,470.187,63.853,473.6,58.733,473.6z"/>
	</g>
	<path d="M255,311.467c-5.12,0-8.533-3.413-8.533-8.533V140.8c0-5.12,3.413-8.533,8.533-8.533s8.533,3.413,8.533,8.533v162.133
		C263.533,308.053,260.12,311.467,255,311.467z"/>
	<path d="M417.133,422.4c-1.707,0-3.413-0.853-5.12-1.707L255,313.173l-148.48,107.52c-3.413,2.56-9.387,1.707-11.947-1.707
		c-2.56-3.413-1.707-9.387,1.707-11.947L255,292.693L422.253,407.04c4.267,2.56,5.12,7.68,2.56,11.947
		C422.253,420.693,419.693,422.4,417.133,422.4z"/>
	<path d="M255,81.067c-2.56,0-4.267-0.853-5.973-2.56l-25.6-25.6c-3.413-3.413-3.413-8.533,0-11.947s8.533-3.413,11.947,0l25.6,25.6
		c3.413,3.413,3.413,8.533,0,11.947C259.267,80.213,257.56,81.067,255,81.067z"/>
	<path d="M255,81.067c-2.56,0-4.267-0.853-5.973-2.56c-3.413-3.413-3.413-8.533,0-11.947l25.6-25.6
		c3.413-3.413,8.533-3.413,11.947,0c3.413,3.413,3.413,8.533,0,11.947l-25.6,25.6C259.267,80.213,257.56,81.067,255,81.067z"/>
	<path d="M255,106.667c-5.12,0-8.533-3.413-8.533-8.533v-25.6c0-5.12,3.413-8.533,8.533-8.533s8.533,3.413,8.533,8.533v25.6
		C263.533,103.253,260.12,106.667,255,106.667z"/>
	<path d="M502.467,473.6c-2.56,0-4.267-0.853-5.973-2.56l-51.2-51.2c-3.413-3.413-3.413-8.533,0-11.947
		c3.413-3.413,8.533-3.413,11.947,0l51.2,51.2c3.413,3.413,3.413,8.533,0,11.947C506.733,472.747,505.027,473.6,502.467,473.6z"/>
	<path d="M451.267,473.6c-2.56,0-4.267-0.853-5.973-2.56c-3.413-3.413-3.413-8.533,0-11.947l51.2-51.2
		c3.413-3.413,8.533-3.413,11.947,0c3.413,3.413,3.413,8.533,0,11.947l-51.2,51.2C455.533,472.747,453.827,473.6,451.267,473.6z"/>
	<path d="M58.733,422.4h-51.2c-5.12,0-8.533-3.413-8.533-8.533s3.413-8.533,8.533-8.533h51.2c5.12,0,8.533,3.413,8.533,8.533
		S63.853,422.4,58.733,422.4z"/>
	<path d="M7.533,473.6c-2.56,0-4.267-0.853-5.973-2.56c-3.413-3.413-3.413-8.533,0-11.947l51.2-51.2
		c3.413-3.413,8.533-3.413,11.947,0c3.413,3.413,3.413,8.533,0,11.947l-51.2,51.2C11.8,472.747,10.093,473.6,7.533,473.6z"/>
	<path d="M58.733,473.6h-51.2c-5.12,0-8.533-3.413-8.533-8.533c0-5.12,3.413-8.533,8.533-8.533h51.2c5.12,0,8.533,3.413,8.533,8.533
		C67.267,470.187,63.853,473.6,58.733,473.6z"/>
</g>
</svg>