<?xml version="1.0" encoding="utf-8"?>
<!-- Uploaded to: SVG Repo, www.svgrepo.com, Generator: SVG Repo Mixer Tools -->
<svg width="800px" height="800px" viewBox="0 0 1024 1024" class="icon"  version="1.1" xmlns="http://www.w3.org/2000/svg"><path d="M827 709.5c0 20.5-16.7 37.2-37.2 37.2H231.7c-20.5 0-37.2-16.7-37.2-37.2V393.2c0-20.5 16.7-37.2 37.2-37.2h558.1c20.5 0 37.2 16.7 37.2 37.2v316.3z" fill="#E74C3C" /><path d="M557.2 551.4m-120.9 0a120.9 120.9 0 1 0 241.8 0 120.9 120.9 0 1 0-241.8 0Z" fill="#CDE9E3" /><path d="M249.9 300.1h111.6v55.8H249.9z" fill="#E74C3C" /><path d="M259.2 421.1h93v55.8h-93z" fill="#CDE9E3" /><path d="M615.7 570c-9.7 0-17.9-7.5-18.5-17.4-2.8-42.5-40-46.2-41.5-46.3-10.2-0.9-17.8-9.9-17-20.1 0.9-10.2 10-17.8 20.1-17 24.4 2.1 71.6 21.7 75.5 80.9 0.7 10.3-7.1 19.1-17.3 19.8-0.5 0.1-0.9 0.1-1.3 0.1z" fill="#FFFFFF" /><path d="M789.8 337.4H380.1v-37.3c0-10.3-8.3-18.6-18.6-18.6H249.9c-10.3 0-18.6 8.3-18.6 18.6v37.3c-30.6 0.2-55.4 25.1-55.4 55.8v316.3c0 30.8 25 55.8 55.8 55.8h558.1c30.8 0 55.8-25 55.8-55.8V393.2c0-30.7-25.1-55.8-55.8-55.8z m-521.3-18.7h74.4v18.6h-74.4v-18.6z m539.9 390.8c0 10.3-8.3 18.6-18.6 18.6H231.7c-10.3 0-18.6-8.3-18.6-18.6V393.2c0-10.3 8.3-18.6 18.6-18.6h558.1c10.3 0 18.6 8.3 18.6 18.6v316.3z" fill="#211F1E" /><path d="M557.2 411.8c-76.9 0-139.5 62.6-139.5 139.5s62.6 139.5 139.5 139.5 139.5-62.6 139.5-139.5-62.6-139.5-139.5-139.5z m0 241.9c-56.4 0-102.3-45.9-102.3-102.3s45.9-102.3 102.3-102.3S659.5 495 659.5 551.4s-45.9 102.3-102.3 102.3zM352.2 411.8h-93c-5.1 0-9.3 4.2-9.3 9.3V477c0 5.1 4.2 9.3 9.3 9.3h93c5.1 0 9.3-4.2 9.3-9.3v-55.8c0-5.2-4.2-9.4-9.3-9.4z m-9.3 55.9h-74.4v-37.2h74.4v37.2zM266.3 657.7c-9.1 0-16.5 7.4-16.5 16.5s7.4 16.5 16.5 16.5 16.5-7.4 16.5-16.5-7.4-16.5-16.5-16.5z" fill="#211F1E" /></svg>