<?xml version="1.0" encoding="iso-8859-1"?>
<!-- Uploaded to: SVG Repo, www.svgrepo.com, Generator: SVG Repo Mixer Tools -->
<svg version="1.1" id="Layer_1" xmlns="http://www.w3.org/2000/svg" xmlns:xlink="http://www.w3.org/1999/xlink" 
	 viewBox="0 0 496.158 496.158" xml:space="preserve">
<path style="fill:#4ABC96;" d="M248.082,0.002C111.07,0.002,0,111.062,0,248.085c0,137.001,111.07,248.07,248.082,248.07
	c137.006,0,248.076-111.069,248.076-248.07C496.158,111.062,385.088,0.002,248.082,0.002z"/>
<path style="fill:#6E4832;" d="M249.492,49.837c-0.781-0.781-2.047-0.781-2.828,0L3.976,292.525
	c20.946,115.794,122.266,203.629,244.105,203.629c121.834,0,223.153-87.835,244.1-203.629L249.492,49.837z"/>
<path style="fill:#F2EFED;" d="M246.782,78.478L9.38,315.88c29.498,104.047,125.198,180.275,238.702,180.275
	c112.769,0,207.951-75.255,238.104-178.274L246.782,78.478z"/>
<g>
	
		<rect x="395.968" y="262.261" transform="matrix(-0.7071 0.7071 -0.7071 -0.7071 920.58 192.3555)" style="fill:#353535;" width="48.969" height="49.15"/>
	
		<rect x="396.118" y="331.706" transform="matrix(-0.7071 0.7071 -0.7071 -0.7071 969.8707 310.7672)" style="fill:#353535;" width="48.911" height="49.09"/>
	
		<rect x="326.782" y="331.507" transform="matrix(-0.7071 0.7071 -0.7071 -0.7071 851.3195 359.5354)" style="fill:#353535;" width="48.831" height="49.15"/>
	
		<rect x="326.998" y="400.879" transform="matrix(-0.7071 0.7071 -0.7071 -0.7071 900.7045 477.764)" style="fill:#353535;" width="48.813" height="49.09"/>
	
		<rect x="257.572" y="400.681" transform="matrix(-0.7071 0.7071 -0.7071 -0.7071 782.1361 526.5393)" style="fill:#353535;" width="48.893" height="49.15"/>
	
		<rect x="49.275" y="261.606" transform="matrix(-0.7071 0.7071 -0.7071 -0.7071 328.2763 436.3855)" style="fill:#353535;" width="48.969" height="49.15"/>
	
		<rect x="118.772" y="331.176" transform="matrix(-0.7071 0.7071 -0.7071 -0.7071 496.0589 505.8877)" style="fill:#353535;" width="48.969" height="49.01"/>
	
		<rect x="188.2" y="400.577" transform="matrix(-0.7071 0.7071 -0.7071 -0.7071 663.6738 575.3201)" style="fill:#353535;" width="48.968" height="49.07"/>
	
		<rect x="49.427" y="331.057" transform="matrix(-0.7071 0.7071 -0.7071 -0.7071 377.574 554.8077)" style="fill:#353535;" width="48.912" height="49.09"/>
	
		<rect x="118.853" y="400.54" transform="matrix(-0.7071 0.7071 -0.7071 -0.7071 545.1894 624.2485)" style="fill:#353535;" width="48.911" height="48.994"/>
	<path style="fill:#353535;" d="M455.317,356.318l10.58,10.58c6.596-12.065,12.212-24.74,16.755-37.916L455.317,356.318z"/>
	<path style="fill:#353535;" d="M420.646,390.987l-34.529,34.529l16.564,16.565c12.757-10.179,24.483-21.59,35.008-34.052
		L420.646,390.987z"/>
	<path style="fill:#353535;" d="M351.492,460.143l-22.505,22.504c10.894-3.756,21.447-8.243,31.594-13.415L351.492,460.143z"/>
	<path style="fill:#353535;" d="M14,330.387c4.252,12.092,9.407,23.756,15.397,34.908l9.755-9.755L14,330.387z"/>
	<path style="fill:#353535;" d="M73.951,390.339l-16.494,16.494c10.485,12.575,22.193,24.092,34.938,34.378l16.214-16.214
		L73.951,390.339z"/>
	<path style="fill:#353535;" d="M143.363,459.75l-8.904,8.904c10.053,5.188,20.51,9.699,31.305,13.496L143.363,459.75z"/>
	
		<rect x="124.665" y="129.022" transform="matrix(-0.7071 0.7071 -0.7071 -0.7071 599.7472 255.1581)" style="fill:#353535;" width="244.728" height="245.538"/>
</g>
<g>
	
		<rect x="361.168" y="227.448" transform="matrix(-0.7071 0.7071 -0.7071 -0.7071 836.5535 157.5145)" style="fill:#F2EFED;" width="48.974" height="49.13"/>
	
		<rect x="291.987" y="296.694" transform="matrix(-0.7071 0.7071 -0.7071 -0.7071 767.3031 324.6911)" style="fill:#F2EFED;" width="48.838" height="49.13"/>
	
		<rect x="222.76" y="365.886" transform="matrix(-0.7071 0.7071 -0.7071 -0.7071 698.1021 491.738)" style="fill:#F2EFED;" width="48.898" height="49.13"/>
	
		<rect x="291.779" y="227.372" transform="matrix(-0.7071 0.7071 -0.7071 -0.7071 717.9793 206.4268)" style="fill:#F2EFED;" width="48.917" height="49.08"/>
	
		<rect x="222.631" y="296.552" transform="matrix(-0.7071 0.7071 -0.7071 -0.7071 648.7726 373.4532)" style="fill:#F2EFED;" width="48.821" height="49.08"/>
	
		<rect x="291.69" y="158.045" transform="matrix(-0.7071 0.7071 -0.7071 -0.7071 668.8242 88.0508)" style="fill:#F2EFED;" width="48.973" height="48.998"/>
	
		<rect x="222.497" y="227.294" transform="matrix(-0.7071 0.7071 -0.7071 -0.7071 599.5553 255.2409)" style="fill:#F2EFED;" width="48.837" height="48.998"/>
	
		<rect x="153.284" y="296.475" transform="matrix(-0.7071 0.7071 -0.7071 -0.7071 530.3717 422.2599)" style="fill:#F2EFED;" width="48.898" height="48.998"/>
	
		<rect x="222.369" y="158.012" transform="matrix(-0.7071 0.7071 -0.7071 -0.7071 550.4086 137.0162)" style="fill:#F2EFED;" width="48.917" height="48.979"/>
	
		<rect x="153.221" y="227.192" transform="matrix(-0.7071 0.7071 -0.7071 -0.7071 481.2018 304.0426)" style="fill:#F2EFED;" width="48.821" height="48.979"/>
	
		<rect x="222.282" y="88.604" transform="matrix(-0.7071 0.7071 -0.7071 -0.7071 501.2577 18.6405)" style="fill:#F2EFED;" width="48.973" height="49.06"/>
	
		<rect x="153.088" y="157.853" transform="matrix(-0.7071 0.7071 -0.7071 -0.7071 431.9871 185.8314)" style="fill:#F2EFED;" width="48.837" height="49.06"/>
	
		<rect x="83.875" y="227.034" transform="matrix(-0.7071 0.7071 -0.7071 -0.7071 362.8035 352.8503)" style="fill:#F2EFED;" width="48.898" height="49.06"/>
</g>
<path style="fill:#353535;" d="M247.352,425.161l-62.776,62.775c20.271,5.354,41.553,8.219,63.506,8.219
	c21.537,0,42.433-2.75,62.357-7.908L247.352,425.161z"/>
<rect x="222.889" y="435.295" transform="matrix(-0.7071 0.7071 -0.7071 -0.7071 747.4407 610.0486)" style="fill:#F2EFED;" width="48.973" height="49.06"/>
<circle style="fill:#E2D9B3;" cx="282.149" cy="217.388" r="15.333"/>
<circle style="fill:#F2EFED;" cx="282.149" cy="217.388" r="12.667"/>
<g>
	<circle style="fill:#E2D9B3;" cx="282.149" cy="217.388" r="9.333"/>
	<circle style="fill:#E2D9B3;" cx="351.479" cy="215.048" r="15.333"/>
</g>
<circle style="fill:#F2EFED;" cx="351.479" cy="215.048" r="12.667"/>
<g>
	<circle style="fill:#E2D9B3;" cx="351.479" cy="215.048" r="9.333"/>
	<circle style="fill:#E2D9B3;" cx="280.149" cy="148.388" r="15.333"/>
</g>
<circle style="fill:#F2EFED;" cx="280.149" cy="148.388" r="12.667"/>
<g>
	<circle style="fill:#E2D9B3;" cx="280.149" cy="148.388" r="9.333"/>
	<circle style="fill:#E2D9B3;" cx="421.149" cy="287.048" r="15.333"/>
</g>
<circle style="fill:#F2EFED;" cx="421.149" cy="287.048" r="12.667"/>
<g>
	<circle style="fill:#E2D9B3;" cx="421.149" cy="287.048" r="9.333"/>
	<circle style="fill:#E2D9B3;" cx="420.479" cy="355.388" r="15.333"/>
</g>
<circle style="fill:#F2EFED;" cx="420.479" cy="355.388" r="12.667"/>
<g>
	<circle style="fill:#E2D9B3;" cx="420.479" cy="355.388" r="9.333"/>
	<circle style="fill:#E2D9B3;" cx="351.819" cy="424.048" r="15.333"/>
</g>
<circle style="fill:#F2EFED;" cx="351.819" cy="424.048" r="12.667"/>
<g>
	<circle style="fill:#E2D9B3;" cx="351.819" cy="424.048" r="9.333"/>
	<circle style="fill:#E2D9B3;" cx="72.819" cy="284.719" r="15.333"/>
	<circle style="fill:#E2D9B3;" cx="72.819" cy="284.719" r="12.667"/>
	<circle style="fill:#E2D9B3;" cx="72.819" cy="284.719" r="9.333"/>
</g>
<circle cx="352.819" cy="357.388" r="15.333"/>
<circle style="fill:#1B1B1B;" cx="352.819" cy="357.388" r="12.667"/>
<circle cx="352.819" cy="357.388" r="9.333"/>
<circle cx="282.479" cy="356.388" r="15.333"/>
<circle style="fill:#1B1B1B;" cx="282.479" cy="356.388" r="12.667"/>
<circle cx="282.479" cy="356.388" r="9.333"/>
<circle cx="212.489" cy="354.388" r="15.333"/>
<circle style="fill:#1B1B1B;" cx="212.489" cy="354.388" r="12.667"/>
<circle cx="212.489" cy="354.388" r="9.333"/>
<circle cx="212.819" cy="285.048" r="15.333"/>
<circle style="fill:#1B1B1B;" cx="212.819" cy="285.048" r="12.667"/>
<circle cx="212.819" cy="285.048" r="9.333"/>
<circle cx="212.149" cy="424.388" r="15.333"/>
<circle style="fill:#1B1B1B;" cx="212.149" cy="424.388" r="12.667"/>
<circle cx="212.149" cy="424.388" r="9.333"/>
</svg>